<!-- Generator: Adobe Illustrator 17.0.0, SVG Export Plug-In  -->
<svg version="1.1"
	 xmlns="http://www.w3.org/2000/svg" xmlns:xlink="http://www.w3.org/1999/xlink" xmlns:a="http://ns.adobe.com/AdobeSVGViewerExtensions/3.0/"
	 x="0px" y="0px" width="89.609px" height="88px" viewBox="0 0 89.609 88" enable-background="new 0 0 89.609 88"
	 xml:space="preserve">
<defs>
</defs>
<path d="M4.754,21.943c0,7.468,2.494,12.859,7.412,16.027c4.025,2.594,8.701,2.982,11.129,2.982c0.59,0,1.062-0.023,1.393-0.044
	c0,0-0.771,5.016,2.949,9.982l-0.168-0.002C21.023,50.888,0,52.234,0,69.517c0,17.585,19.309,18.478,23.182,18.478
	c0.303,0,0.48-0.006,0.48-0.006C23.705,87.989,23.982,88,24.453,88c2.486,0,8.912-0.312,14.879-3.213
	C47.072,81.029,51,74.494,51,65.362c0-8.825-5.982-14.077-10.35-17.916c-2.666-2.338-4.969-4.358-4.969-6.322
	c0-2.001,1.682-3.505,3.809-5.41c3.445-3.081,6.691-7.466,6.691-15.755c0-7.287-0.945-12.178-6.766-15.281
	c0.607-0.311,2.752-0.537,3.814-0.684C46.385,3.563,51,3.074,51,0.498V0H28.006C27.775,0.006,4.754,0.859,4.754,21.943z
	 M41.871,67.007c0.439,7.033-5.576,12.222-14.607,12.879c-9.174,0.67-16.727-3.46-17.166-10.483
	c-0.213-3.374,1.271-6.684,4.176-9.316c2.947-2.669,6.992-4.314,11.393-4.639c0.519-0.033,1.035-0.054,1.549-0.054
	C35.705,55.394,41.455,60.384,41.871,67.007z M35.867,17.131c2.256,7.934-1.15,16.23-6.578,17.759
	c-0.623,0.175-1.27,0.265-1.922,0.265c-4.973,0-9.9-5.031-11.725-11.96c-1.02-3.894-0.938-7.296,0.232-10.568
	c1.15-3.219,3.215-5.393,5.814-6.124c0.625-0.177,1.274-0.267,1.924-0.267C29.617,6.235,33.477,8.725,35.867,17.131z M74.609,34.41
	v-15h-9.5v15h-15v9.5h15v15h9.5v-15h15v-9.5H74.609z"/>
</svg>
