<!-- Generator: Adobe Illustrator 17.0.0, SVG Export Plug-In  -->
<svg version="1.1"
	 xmlns="http://www.w3.org/2000/svg" xmlns:xlink="http://www.w3.org/1999/xlink" xmlns:a="http://ns.adobe.com/AdobeSVGViewerExtensions/3.0/"
	 x="0px" y="0px" width="148.371px" height="20.721px" viewBox="0 0 148.371 20.721" enable-background="new 0 0 148.371 20.721"
	 xml:space="preserve">
<defs>
</defs>
<g>
	<path fill="#FFFFFF" d="M11.088,17.137H6.216l-0.7,3.275H0l5.824-19.6h5.656l5.824,19.6h-5.488L11.088,17.137z M7.14,12.964h3.023
		L8.652,6.16L7.14,12.964z"/>
	<path fill="#FFFFFF" d="M26.32,20.412v-1.399c-1.092,0.979-2.072,1.708-3.752,1.708c-2.996,0-4.788-2.66-4.788-7.645
		c0-5.012,1.792-7.672,4.788-7.672c1.68,0,2.66,0.728,3.752,1.736V0h4.928v20.412H26.32z M26.32,15.064V11.06
		c-0.7-1.148-1.429-1.54-2.017-1.54c-1.036,0-1.567,1.204-1.567,3.528c0,2.352,0.531,3.556,1.567,3.556
		C24.891,16.604,25.62,16.212,26.32,15.064z"/>
	<path fill="#FFFFFF" d="M41.244,18.816c-0.924,0.979-2.155,1.904-3.947,1.904c-2.744,0-4.312-2.128-4.312-4.872
		c0-2.94,1.82-4.705,4.676-4.705c1.4,0,2.885,0.42,3.584,0.616v-0.784c0-1.288-0.447-1.708-1.735-1.708
		c-1.036,0-2.156,0.28-4.229,0.98l-1.512-3.472c2.688-0.98,4.956-1.372,6.832-1.372c3.948,0,5.544,1.568,5.544,5.684v9.324h-4.9
		V18.816z M41.244,15.624v-1.456c-0.476-0.14-1.315-0.363-1.876-0.363c-0.84,0-1.428,0.476-1.428,1.54
		c0,0.979,0.476,1.456,1.176,1.456C39.788,16.801,40.572,16.353,41.244,15.624z"/>
	<path fill="#FFFFFF" d="M53.395,7.42c0.896-0.98,2.24-2.016,3.836-2.016c1.736,0,2.884,0.896,3.388,2.38
		c0.868-1.064,2.353-2.38,4.2-2.38c2.437,0,3.696,1.652,3.696,4.536v10.472h-4.9v-9.128c0-1.092-0.084-1.904-0.896-1.904
		c-0.672,0-1.344,0.672-1.764,1.4v9.632h-4.9v-9.128c0-1.092-0.084-1.904-0.896-1.904c-0.672,0-1.344,0.7-1.764,1.4v9.632h-4.899
		v-14.7h4.899V7.42z"/>
	<path fill="#FFFFFF" d="M88.759,7.028c-1.848-0.98-3.304-1.708-4.535-1.708c-1.765,0-2.521,2.1-2.521,5.292
		s0.756,5.292,2.521,5.292c1.231,0,2.688-0.728,4.535-1.708l2.269,3.948c-2.464,1.372-4.788,2.576-7.561,2.576
		c-4.199,0-7-3.276-7-10.108s2.801-10.108,7-10.108c2.772,0,5.097,1.204,7.561,2.576L88.759,7.028z"/>
	<path fill="#FFFFFF" d="M98.419,20.721c-4.508,0-6.86-2.801-6.86-7.672c0-4.872,2.324-7.644,6.86-7.644
		c4.508,0,6.86,2.8,6.86,7.672S102.956,20.721,98.419,20.721z M98.419,9.324c-1.4,0-1.904,1.344-1.904,3.724
		s0.504,3.752,1.904,3.752c1.372,0,1.904-1.345,1.904-3.725S99.792,9.324,98.419,9.324z"/>
	<path fill="#FFFFFF" d="M113.4,20.721c-4.508,0-6.86-2.801-6.86-7.672c0-4.872,2.324-7.644,6.86-7.644c4.508,0,6.86,2.8,6.86,7.672
		S117.936,20.721,113.4,20.721z M113.4,9.324c-1.4,0-1.904,1.344-1.904,3.724s0.504,3.752,1.904,3.752
		c1.372,0,1.904-1.345,1.904-3.725S114.772,9.324,113.4,9.324z"/>
	<path fill="#FFFFFF" d="M130.984,11.508l4.871,8.904h-5.151l-2.576-4.983l-1.12,1.567v3.416h-4.899V0h4.899v10.192l2.548-4.48
		h5.628L130.984,11.508z"/>
	<path fill="#FFFFFF" d="M140.559,14.141c0.111,1.848,0.588,2.8,1.819,2.8c1.009,0,2.408-0.616,4.229-1.596l1.764,3.107
		c-1.372,0.924-3.864,2.269-6.58,2.269c-3.5,0-6.216-2.296-6.216-7.617c0-4.816,2.24-7.7,6.468-7.7c4.229,0,6.272,2.772,6.272,6.552
		c0,1.288-0.252,2.185-0.252,2.185H140.559z M140.559,11.48h3.107c-0.027-1.568-0.392-2.464-1.512-2.464
		C141.119,9.016,140.699,9.884,140.559,11.48z"/>
</g>
</svg>
