<!-- Generator: Adobe Illustrator 17.0.0, SVG Export Plug-In  -->
<svg version="1.1"
	 xmlns="http://www.w3.org/2000/svg" xmlns:xlink="http://www.w3.org/1999/xlink" xmlns:a="http://ns.adobe.com/AdobeSVGViewerExtensions/3.0/"
	 x="0px" y="0px" width="168.76px" height="11.077px" viewBox="0 0 168.76 11.077" enable-background="new 0 0 168.76 11.077"
	 xml:space="preserve">
<defs>
</defs>
<g>
	<path fill="#584C44" d="M2.871,0c0.513,0,1.001,0.062,1.463,0.187C4.796,0.312,5.221,0.539,5.61,0.869
		c0,0.271-0.002,0.522-0.005,0.753C5.601,1.854,5.599,2.104,5.599,2.376H4.928L4.895,1.199c-0.264-0.184-0.578-0.317-0.94-0.402
		C3.591,0.713,3.234,0.671,2.882,0.671c-0.264,0-0.522,0.027-0.775,0.082C1.854,0.809,1.628,0.893,1.43,1.006
		C1.232,1.12,1.072,1.269,0.951,1.452C0.831,1.635,0.77,1.855,0.77,2.111c0,0.242,0.059,0.44,0.176,0.595
		C1.063,2.859,1.221,2.99,1.419,3.097c0.198,0.106,0.429,0.19,0.693,0.253s0.542,0.119,0.836,0.17
		C3.329,3.586,3.703,3.661,4.07,3.745C4.437,3.83,4.765,3.952,5.054,4.114c0.29,0.161,0.524,0.37,0.704,0.627
		c0.18,0.256,0.27,0.59,0.27,1.001c0,0.433-0.095,0.794-0.286,1.083c-0.19,0.29-0.435,0.521-0.731,0.693
		C4.713,7.69,4.378,7.812,4.004,7.881c-0.374,0.07-0.741,0.104-1.1,0.104c-0.542,0-1.058-0.082-1.545-0.247S0.418,7.304,0,6.93V5.39
		h0.693l0.033,1.188c0.3,0.227,0.642,0.401,1.023,0.522c0.381,0.121,0.77,0.182,1.166,0.182c0.234,0,0.489-0.021,0.764-0.061
		c0.275-0.041,0.532-0.117,0.77-0.231c0.238-0.113,0.437-0.271,0.594-0.473C5.201,6.315,5.28,6.058,5.28,5.742
		c0-0.279-0.079-0.508-0.236-0.688s-0.357-0.325-0.6-0.435C4.202,4.51,3.938,4.428,3.652,4.372C3.366,4.317,3.098,4.268,2.849,4.224
		c-0.367-0.065-0.72-0.141-1.061-0.226C1.446,3.914,1.144,3.795,0.88,3.641s-0.475-0.354-0.632-0.6
		c-0.158-0.245-0.237-0.559-0.237-0.94c0-0.381,0.084-0.707,0.253-0.979c0.169-0.271,0.389-0.49,0.66-0.655
		c0.271-0.164,0.578-0.283,0.918-0.357C2.184,0.036,2.526,0,2.871,0z"/>
	<path fill="#584C44" d="M7.04,5.137c0-0.425,0.072-0.813,0.215-1.166c0.143-0.352,0.341-0.65,0.594-0.896
		c0.253-0.245,0.548-0.437,0.886-0.572c0.337-0.136,0.704-0.203,1.1-0.203c0.403,0,0.776,0.067,1.117,0.203s0.636,0.328,0.885,0.578
		c0.25,0.249,0.446,0.548,0.589,0.896c0.143,0.348,0.214,0.735,0.214,1.16c0,0.426-0.071,0.811-0.214,1.155s-0.341,0.638-0.594,0.88
		s-0.55,0.429-0.891,0.561c-0.341,0.133-0.709,0.198-1.105,0.198s-0.763-0.065-1.1-0.198C8.396,7.601,8.101,7.414,7.848,7.172
		s-0.451-0.535-0.594-0.88C7.111,5.947,7.04,5.562,7.04,5.137z M11.935,5.137c0-0.33-0.055-0.629-0.165-0.896
		c-0.11-0.268-0.258-0.497-0.445-0.688s-0.407-0.337-0.66-0.44c-0.253-0.103-0.526-0.153-0.819-0.153
		c-0.293,0-0.568,0.051-0.825,0.153c-0.257,0.104-0.479,0.25-0.666,0.44s-0.333,0.42-0.44,0.688S7.755,4.807,7.755,5.137
		c0,0.323,0.053,0.614,0.159,0.875c0.106,0.26,0.253,0.481,0.44,0.665s0.407,0.326,0.66,0.429C9.267,7.209,9.541,7.26,9.833,7.26
		c0.293,0,0.568-0.051,0.825-0.154c0.257-0.103,0.479-0.245,0.666-0.429s0.335-0.405,0.445-0.665
		C11.88,5.751,11.935,5.46,11.935,5.137z"/>
	<path fill="#584C44" d="M16.444,7.205v0.627h-2.816V7.205h0.924V3.058h-1.089V2.441h1.089V1.969c0-0.579,0.139-1.036,0.418-1.369
		c0.278-0.334,0.715-0.505,1.309-0.512c0.176,0,0.352,0.023,0.528,0.071c0.176,0.048,0.341,0.123,0.495,0.226l-0.253,0.561
		c-0.125-0.08-0.247-0.139-0.368-0.176c-0.121-0.036-0.255-0.055-0.402-0.055c-0.315,0-0.564,0.098-0.748,0.291
		c-0.184,0.194-0.275,0.516-0.275,0.963v0.473h1.595v0.616h-1.595v4.147H16.444z"/>
	<path fill="#584C44" d="M19.073,0.792V2.42h1.771v0.604h-1.782v3.092c0,0.352,0.062,0.632,0.187,0.841
		c0.125,0.209,0.374,0.313,0.748,0.313c0.125,0,0.262-0.02,0.413-0.061c0.15-0.04,0.292-0.093,0.423-0.159l0.22,0.594
		c-0.367,0.176-0.722,0.268-1.067,0.275c-0.587,0.007-1.005-0.146-1.254-0.462c-0.25-0.315-0.374-0.763-0.374-1.342V3.024h-1.122
		V2.42h1.122V0.869L19.073,0.792z"/>
	<path fill="#584C44" d="M22.241,3.036h-0.803V2.397h2.365v0.639h-0.792l1.342,4.037l1.562-4.676h0.539l1.562,4.676l1.331-4.037
		H28.5V2.397h2.398v0.639h-0.792l-1.683,4.817H27.62l-0.748-2.111L26.19,3.563l-0.693,2.179l-0.759,2.111h-0.803L22.241,3.036z"/>
	<path fill="#584C44" d="M37.938,7.205v0.638h-1.595c0-0.036-0.004-0.103-0.011-0.198c-0.007-0.095-0.015-0.198-0.022-0.308
		c-0.007-0.11-0.015-0.215-0.022-0.313c-0.007-0.1-0.011-0.167-0.011-0.204c-0.11,0.206-0.244,0.38-0.401,0.522
		c-0.158,0.144-0.33,0.261-0.517,0.353s-0.385,0.157-0.594,0.198c-0.209,0.04-0.413,0.061-0.61,0.061
		c-0.389,0-0.75-0.064-1.083-0.192c-0.334-0.129-0.627-0.315-0.88-0.562c-0.253-0.245-0.451-0.543-0.594-0.891
		c-0.143-0.349-0.214-0.743-0.214-1.183c0-0.433,0.071-0.823,0.214-1.172c0.143-0.348,0.341-0.644,0.594-0.886
		c0.253-0.241,0.546-0.427,0.88-0.555c0.333-0.129,0.695-0.193,1.083-0.193c0.212,0,0.425,0.024,0.638,0.072
		c0.213,0.048,0.415,0.121,0.605,0.22c0.19,0.099,0.363,0.222,0.517,0.368c0.154,0.147,0.279,0.319,0.374,0.518l0.011-1.101h1.628
		v0.66h-0.946v4.147H37.938z M34.165,3.003c-0.286,0-0.555,0.05-0.808,0.148c-0.253,0.099-0.473,0.242-0.66,0.429
		c-0.187,0.188-0.335,0.413-0.445,0.677c-0.11,0.264-0.165,0.561-0.165,0.891s0.055,0.627,0.165,0.892
		c0.11,0.264,0.26,0.489,0.451,0.676c0.191,0.188,0.413,0.33,0.666,0.43c0.253,0.099,0.526,0.148,0.819,0.148
		c0.337,0,0.638-0.059,0.902-0.176C35.353,7,35.575,6.842,35.755,6.644s0.317-0.423,0.412-0.677
		c0.096-0.253,0.147-0.515,0.154-0.786c0.007-0.278-0.033-0.55-0.121-0.813c-0.088-0.265-0.224-0.497-0.407-0.699
		c-0.184-0.201-0.411-0.362-0.682-0.483C34.84,3.063,34.524,3.003,34.165,3.003z"/>
	<path fill="#584C44" d="M39.654,3.047h-0.946V2.409h1.573l0.066,0.901c0.168-0.33,0.412-0.577,0.731-0.742
		c0.319-0.165,0.666-0.248,1.04-0.248c0.22,0,0.429,0.032,0.627,0.094c0.198,0.062,0.392,0.152,0.583,0.27l-0.319,0.605
		c-0.146-0.088-0.297-0.156-0.451-0.204c-0.154-0.047-0.315-0.071-0.484-0.071c-0.528,0.015-0.944,0.178-1.249,0.489
		c-0.305,0.312-0.457,0.725-0.457,1.238v2.475h0.924v0.627h-2.574V7.216h0.935V3.047z"/>
	<path fill="#584C44" d="M48.85,6.919c-0.271,0.337-0.621,0.588-1.05,0.753s-0.86,0.248-1.292,0.248
		c-0.403,0-0.775-0.064-1.117-0.192c-0.341-0.129-0.636-0.313-0.885-0.556c-0.25-0.242-0.446-0.537-0.588-0.886
		c-0.143-0.348-0.215-0.738-0.215-1.171c0-0.411,0.07-0.789,0.209-1.134s0.332-0.64,0.578-0.885
		c0.246-0.246,0.537-0.438,0.875-0.578C45.7,2.38,46.07,2.31,46.474,2.31c0.396,0,0.77,0.061,1.122,0.182s0.655,0.308,0.908,0.562
		c0.253,0.253,0.443,0.575,0.572,0.968s0.167,0.856,0.116,1.392h-4.774c0.029,0.301,0.104,0.564,0.225,0.792
		c0.121,0.228,0.275,0.42,0.462,0.577c0.187,0.158,0.401,0.277,0.643,0.357c0.242,0.081,0.499,0.121,0.77,0.121
		c0.169,0,0.343-0.017,0.523-0.05c0.179-0.032,0.352-0.082,0.517-0.148c0.165-0.065,0.319-0.146,0.462-0.242
		c0.143-0.095,0.262-0.205,0.357-0.329L48.85,6.919z M48.52,4.817c-0.015-0.608-0.206-1.07-0.572-1.386s-0.854-0.473-1.463-0.473
		c-0.264,0-0.514,0.04-0.748,0.121c-0.235,0.08-0.445,0.199-0.632,0.357c-0.187,0.157-0.341,0.352-0.462,0.583
		c-0.121,0.23-0.196,0.497-0.225,0.797H48.52z"/>
	<path fill="#584C44" d="M59.575,7.193v0.649h-1.584c0-0.036-0.004-0.108-0.011-0.215c-0.007-0.105-0.015-0.218-0.022-0.335
		s-0.015-0.229-0.022-0.336s-0.011-0.178-0.011-0.214c-0.22,0.403-0.526,0.702-0.918,0.896c-0.393,0.194-0.801,0.291-1.227,0.291
		c-0.381,0-0.739-0.062-1.073-0.187c-0.333-0.125-0.625-0.309-0.875-0.551c-0.249-0.241-0.445-0.537-0.588-0.885
		C53.101,5.96,53.03,5.565,53.03,5.126c0-0.447,0.071-0.846,0.214-1.193c0.143-0.349,0.339-0.642,0.588-0.88
		c0.25-0.238,0.541-0.42,0.875-0.545c0.334-0.125,0.688-0.188,1.062-0.188c0.206,0,0.416,0.024,0.633,0.072
		c0.216,0.048,0.419,0.121,0.61,0.22c0.19,0.099,0.365,0.224,0.522,0.374s0.284,0.324,0.379,0.522V0.77h-0.946V0.143h1.661v7.051
		H59.575z M55.834,2.98c-0.286,0-0.557,0.046-0.814,0.138s-0.479,0.229-0.666,0.413c-0.187,0.183-0.335,0.406-0.445,0.671
		c-0.11,0.264-0.165,0.568-0.165,0.913c0,0.337,0.055,0.638,0.165,0.901c0.11,0.265,0.26,0.488,0.451,0.671
		c0.19,0.184,0.413,0.323,0.666,0.418c0.253,0.096,0.522,0.144,0.808,0.144c0.315,0,0.602-0.056,0.858-0.165
		c0.256-0.11,0.475-0.261,0.654-0.451s0.317-0.418,0.413-0.682c0.095-0.265,0.143-0.551,0.143-0.858c0-0.301-0.05-0.581-0.148-0.842
		c-0.099-0.26-0.239-0.483-0.418-0.671c-0.18-0.187-0.396-0.333-0.649-0.439C56.434,3.034,56.15,2.98,55.834,2.98z"/>
	<path fill="#584C44" d="M65.459,6.919c-0.271,0.337-0.621,0.588-1.05,0.753s-0.86,0.248-1.292,0.248
		c-0.403,0-0.775-0.064-1.117-0.192c-0.341-0.129-0.636-0.313-0.885-0.556c-0.25-0.242-0.446-0.537-0.588-0.886
		c-0.143-0.348-0.215-0.738-0.215-1.171c0-0.411,0.07-0.789,0.209-1.134s0.332-0.64,0.578-0.885
		c0.246-0.246,0.537-0.438,0.875-0.578C62.31,2.38,62.68,2.31,63.083,2.31c0.396,0,0.77,0.061,1.122,0.182s0.655,0.308,0.908,0.562
		c0.253,0.253,0.443,0.575,0.572,0.968s0.167,0.856,0.116,1.392h-4.774c0.029,0.301,0.104,0.564,0.225,0.792
		c0.121,0.228,0.275,0.42,0.462,0.577c0.187,0.158,0.401,0.277,0.643,0.357C62.6,7.22,62.856,7.26,63.127,7.26
		c0.169,0,0.343-0.017,0.523-0.05c0.179-0.032,0.352-0.082,0.517-0.148c0.165-0.065,0.319-0.146,0.462-0.242
		c0.143-0.095,0.262-0.205,0.357-0.329L65.459,6.919z M65.13,4.817c-0.015-0.608-0.206-1.07-0.572-1.386s-0.854-0.473-1.463-0.473
		c-0.264,0-0.514,0.04-0.748,0.121c-0.235,0.08-0.445,0.199-0.632,0.357c-0.187,0.157-0.341,0.352-0.462,0.583
		c-0.121,0.23-0.196,0.497-0.225,0.797H65.13z"/>
	<path fill="#584C44" d="M71.037,4.004H70.42l-0.022-0.836c-0.176-0.096-0.394-0.167-0.654-0.215
		c-0.261-0.048-0.494-0.071-0.699-0.071c-0.213,0-0.409,0.019-0.588,0.055c-0.18,0.037-0.337,0.096-0.473,0.176
		c-0.136,0.081-0.24,0.182-0.313,0.303s-0.11,0.263-0.11,0.424s0.044,0.293,0.132,0.396c0.088,0.104,0.202,0.186,0.341,0.248
		c0.139,0.062,0.298,0.111,0.479,0.148c0.179,0.037,0.364,0.065,0.555,0.088c0.242,0.037,0.499,0.081,0.77,0.132
		c0.271,0.052,0.521,0.134,0.748,0.248c0.227,0.113,0.414,0.27,0.561,0.467c0.146,0.198,0.216,0.462,0.209,0.792
		c0,0.286-0.066,0.532-0.198,0.737c-0.132,0.205-0.306,0.37-0.522,0.495s-0.46,0.217-0.731,0.275s-0.55,0.088-0.836,0.088
		c-0.433,0-0.819-0.052-1.161-0.154c-0.341-0.103-0.702-0.264-1.083-0.484l0.022-1.275h0.627l0.022,0.847
		c0.234,0.125,0.491,0.224,0.77,0.297c0.278,0.073,0.553,0.11,0.825,0.11c0.154,0,0.323-0.013,0.506-0.039
		c0.183-0.025,0.354-0.073,0.511-0.143s0.29-0.167,0.396-0.292c0.106-0.124,0.16-0.285,0.16-0.483c0-0.176-0.044-0.321-0.132-0.435
		c-0.088-0.113-0.207-0.207-0.357-0.28S69.849,5.49,69.65,5.45c-0.198-0.04-0.407-0.071-0.627-0.094
		c-0.242-0.036-0.491-0.082-0.748-0.137c-0.257-0.056-0.489-0.138-0.698-0.248s-0.381-0.255-0.517-0.435s-0.204-0.412-0.204-0.698
		c0-0.278,0.062-0.519,0.187-0.721c0.125-0.201,0.29-0.364,0.495-0.489c0.205-0.125,0.44-0.217,0.704-0.275
		c0.264-0.059,0.531-0.088,0.803-0.088c0.345,0,0.691,0.041,1.04,0.121c0.348,0.081,0.676,0.205,0.984,0.374L71.037,4.004z"/>
	<path fill="#584C44" d="M73.885,2.387v4.807h0.957v0.649h-2.629V7.193h0.957V3.036h-0.935V2.387H73.885z M73.533,1.188
		c-0.125,0-0.24-0.04-0.347-0.121c-0.106-0.08-0.159-0.205-0.159-0.374c0-0.168,0.053-0.293,0.159-0.374
		c0.106-0.08,0.222-0.12,0.347-0.12c0.125,0,0.24,0.04,0.346,0.12c0.106,0.081,0.16,0.206,0.16,0.374c0,0.177-0.053,0.303-0.16,0.38
		C73.773,1.149,73.658,1.188,73.533,1.188z"/>
	<path fill="#584C44" d="M76.316,8.833c-0.007,0.278,0.046,0.517,0.16,0.715s0.268,0.361,0.462,0.489s0.416,0.224,0.666,0.286
		c0.249,0.062,0.506,0.094,0.77,0.094c0.249,0,0.497-0.026,0.743-0.077c0.246-0.052,0.465-0.134,0.66-0.248
		c0.194-0.113,0.352-0.258,0.473-0.434c0.121-0.177,0.182-0.39,0.182-0.639c0-0.257-0.061-0.473-0.182-0.648
		c-0.121-0.177-0.277-0.319-0.467-0.43c-0.191-0.109-0.411-0.19-0.66-0.241c-0.25-0.052-0.499-0.077-0.748-0.077
		c-0.418,0-0.801-0.059-1.149-0.177c-0.349-0.117-0.647-0.289-0.896-0.517c-0.25-0.228-0.444-0.506-0.583-0.836
		c-0.14-0.33-0.209-0.708-0.209-1.133c0-0.447,0.083-0.838,0.248-1.172c0.165-0.333,0.383-0.612,0.654-0.836s0.576-0.391,0.913-0.5
		c0.337-0.11,0.678-0.165,1.023-0.165c0.264,0,0.544,0.036,0.841,0.109c0.297,0.073,0.548,0.184,0.754,0.33l0.572-0.692l0.506,0.396
		l-0.594,0.704c0.103,0.11,0.198,0.226,0.286,0.347c0.088,0.121,0.165,0.255,0.231,0.401c0.066,0.146,0.119,0.308,0.159,0.484
		c0.041,0.176,0.061,0.374,0.061,0.594c0,0.228-0.033,0.458-0.099,0.692c-0.066,0.235-0.165,0.457-0.297,0.666
		c-0.132,0.209-0.301,0.396-0.506,0.561c-0.206,0.165-0.451,0.285-0.737,0.357c0.513,0.133,0.907,0.351,1.182,0.655
		c0.275,0.304,0.413,0.68,0.413,1.127c0,0.345-0.079,0.646-0.236,0.902s-0.369,0.471-0.633,0.644
		c-0.264,0.172-0.562,0.301-0.896,0.385c-0.333,0.084-0.676,0.127-1.028,0.127c-0.389,0-0.75-0.05-1.083-0.148
		c-0.334-0.1-0.624-0.244-0.869-0.435c-0.246-0.191-0.438-0.426-0.577-0.704c-0.14-0.279-0.206-0.598-0.198-0.957H76.316z
		 M76.24,4.961c0,0.337,0.057,0.633,0.17,0.886c0.113,0.253,0.266,0.464,0.457,0.632c0.19,0.169,0.416,0.296,0.676,0.38
		s0.537,0.126,0.831,0.126c0.315,0,0.603-0.053,0.863-0.159s0.484-0.253,0.671-0.439c0.187-0.188,0.33-0.402,0.429-0.644
		c0.099-0.242,0.148-0.503,0.148-0.781c0-0.345-0.06-0.644-0.181-0.896s-0.281-0.464-0.479-0.633
		c-0.198-0.169-0.424-0.293-0.677-0.374c-0.253-0.08-0.511-0.121-0.775-0.121c-0.257,0-0.513,0.041-0.77,0.121
		c-0.257,0.081-0.486,0.204-0.688,0.369c-0.202,0.164-0.365,0.375-0.489,0.632C76.302,4.315,76.24,4.616,76.24,4.961z"/>
	<path fill="#584C44" d="M83.764,7.193h0.902v0.649h-2.574V7.193h0.968V3.047h-0.946V2.409h1.595l0.033,0.979
		c0.242-0.396,0.531-0.675,0.869-0.836s0.693-0.242,1.067-0.242c0.777,0,1.364,0.215,1.76,0.644s0.594,1.04,0.594,1.832v2.408H89
		v0.649h-2.53V7.193h0.847V4.796c0-0.623-0.137-1.082-0.413-1.375c-0.275-0.293-0.702-0.44-1.281-0.44
		c-0.264,0-0.51,0.046-0.737,0.138c-0.228,0.092-0.424,0.222-0.589,0.391s-0.295,0.368-0.39,0.6
		c-0.096,0.23-0.143,0.485-0.143,0.765V7.193z"/>
	<path fill="#584C44" d="M94.774,6.919c-0.271,0.337-0.621,0.588-1.05,0.753s-0.86,0.248-1.292,0.248
		c-0.403,0-0.775-0.064-1.117-0.192c-0.341-0.129-0.636-0.313-0.885-0.556c-0.25-0.242-0.446-0.537-0.588-0.886
		c-0.143-0.348-0.215-0.738-0.215-1.171c0-0.411,0.07-0.789,0.209-1.134s0.332-0.64,0.578-0.885
		c0.246-0.246,0.537-0.438,0.875-0.578c0.337-0.139,0.708-0.209,1.111-0.209c0.396,0,0.77,0.061,1.122,0.182
		s0.655,0.308,0.908,0.562C94.681,3.306,94.872,3.628,95,4.021s0.167,0.856,0.116,1.392h-4.774c0.029,0.301,0.104,0.564,0.225,0.792
		c0.121,0.228,0.275,0.42,0.462,0.577c0.187,0.158,0.401,0.277,0.643,0.357c0.242,0.081,0.499,0.121,0.77,0.121
		c0.169,0,0.343-0.017,0.523-0.05c0.179-0.032,0.352-0.082,0.517-0.148c0.165-0.065,0.319-0.146,0.462-0.242
		c0.143-0.095,0.262-0.205,0.357-0.329L94.774,6.919z M94.445,4.817c-0.015-0.608-0.206-1.07-0.572-1.386s-0.854-0.473-1.463-0.473
		c-0.264,0-0.514,0.04-0.748,0.121c-0.235,0.08-0.445,0.199-0.632,0.357c-0.187,0.157-0.341,0.352-0.462,0.583
		c-0.121,0.23-0.196,0.497-0.225,0.797H94.445z"/>
	<path fill="#584C44" d="M96.908,3.047h-0.946V2.409h1.573l0.066,0.901c0.168-0.33,0.412-0.577,0.731-0.742
		c0.319-0.165,0.666-0.248,1.04-0.248c0.22,0,0.429,0.032,0.627,0.094c0.198,0.062,0.392,0.152,0.583,0.27l-0.319,0.605
		c-0.146-0.088-0.297-0.156-0.451-0.204c-0.154-0.047-0.315-0.071-0.484-0.071C98.8,3.028,98.384,3.191,98.08,3.503
		c-0.305,0.312-0.457,0.725-0.457,1.238v2.475h0.924v0.627h-2.574V7.216h0.935V3.047z"/>
	<path fill="#584C44" d="M109.481,5.774c0,0.191,0.013,0.371,0.039,0.539c0.026,0.169,0.073,0.319,0.143,0.451
		s0.163,0.236,0.28,0.313c0.118,0.077,0.264,0.115,0.44,0.115v0.649c-0.308,0.036-0.583-0.025-0.825-0.187
		c-0.242-0.162-0.407-0.419-0.495-0.771c-0.139,0.22-0.297,0.399-0.473,0.539c-0.176,0.14-0.363,0.247-0.561,0.324
		c-0.198,0.077-0.4,0.129-0.605,0.154c-0.206,0.025-0.411,0.038-0.616,0.038c-0.917,0-1.628-0.185-2.134-0.555
		c-0.506-0.371-0.759-0.923-0.759-1.656c0-0.22,0.041-0.427,0.121-0.621s0.19-0.368,0.33-0.522c0.139-0.154,0.297-0.29,0.473-0.407
		c0.176-0.117,0.359-0.209,0.55-0.275c-0.191-0.059-0.369-0.143-0.534-0.253c-0.165-0.109-0.306-0.239-0.423-0.39
		s-0.209-0.317-0.275-0.501s-0.099-0.374-0.099-0.572c0-0.322,0.066-0.614,0.198-0.874c0.132-0.261,0.319-0.48,0.561-0.66
		c0.242-0.18,0.534-0.319,0.875-0.418c0.341-0.099,0.721-0.148,1.139-0.148c0.315,0,0.625,0.027,0.93,0.082
		c0.304,0.056,0.577,0.154,0.819,0.297c0.242,0.144,0.436,0.342,0.583,0.595c0.146,0.253,0.22,0.581,0.22,0.984l-0.704-0.011
		c0-0.271-0.051-0.493-0.154-0.666c-0.103-0.172-0.24-0.308-0.412-0.407c-0.172-0.099-0.373-0.165-0.6-0.197
		c-0.228-0.033-0.462-0.05-0.704-0.05c-0.352,0-0.654,0.038-0.908,0.115c-0.253,0.077-0.462,0.182-0.627,0.313
		s-0.286,0.286-0.363,0.462c-0.077,0.177-0.116,0.363-0.116,0.562c0,0.271,0.068,0.499,0.204,0.682
		c0.136,0.184,0.304,0.33,0.506,0.44c0.202,0.109,0.422,0.188,0.66,0.236s0.464,0.071,0.677,0.071h3.344v0.616h-0.704V5.774z
		 M108.822,4.213h-2.035c-0.352,0-0.662,0.046-0.93,0.138s-0.489,0.209-0.666,0.352c-0.176,0.144-0.308,0.305-0.396,0.484
		c-0.088,0.18-0.132,0.357-0.132,0.533c0,0.477,0.182,0.853,0.544,1.128c0.363,0.274,0.889,0.412,1.579,0.412
		c0.198,0,0.416-0.022,0.654-0.066s0.46-0.122,0.666-0.236c0.206-0.113,0.376-0.268,0.512-0.462s0.204-0.438,0.204-0.731V4.213z"/>
	<path fill="#584C44" d="M120.779,7.193v0.649h-1.584c0-0.036-0.004-0.108-0.011-0.215c-0.007-0.105-0.015-0.218-0.022-0.335
		s-0.015-0.229-0.022-0.336s-0.011-0.178-0.011-0.214c-0.22,0.403-0.526,0.702-0.918,0.896c-0.393,0.194-0.801,0.291-1.227,0.291
		c-0.381,0-0.739-0.062-1.073-0.187c-0.333-0.125-0.625-0.309-0.875-0.551c-0.249-0.241-0.445-0.537-0.588-0.885
		c-0.143-0.349-0.214-0.743-0.214-1.183c0-0.447,0.071-0.846,0.214-1.193c0.143-0.349,0.339-0.642,0.588-0.88
		c0.25-0.238,0.541-0.42,0.875-0.545c0.334-0.125,0.688-0.188,1.062-0.188c0.206,0,0.416,0.024,0.633,0.072
		c0.216,0.048,0.419,0.121,0.61,0.22c0.19,0.099,0.365,0.224,0.522,0.374s0.284,0.324,0.379,0.522V0.77h-0.946V0.143h1.661v7.051
		H120.779z M117.039,2.98c-0.286,0-0.557,0.046-0.814,0.138s-0.479,0.229-0.666,0.413c-0.187,0.183-0.335,0.406-0.445,0.671
		c-0.11,0.264-0.165,0.568-0.165,0.913c0,0.337,0.055,0.638,0.165,0.901c0.11,0.265,0.26,0.488,0.451,0.671
		c0.19,0.184,0.413,0.323,0.666,0.418c0.253,0.096,0.522,0.144,0.808,0.144c0.315,0,0.602-0.056,0.858-0.165
		c0.256-0.11,0.475-0.261,0.654-0.451s0.317-0.418,0.413-0.682c0.095-0.265,0.143-0.551,0.143-0.858c0-0.301-0.05-0.581-0.148-0.842
		c-0.099-0.26-0.239-0.483-0.418-0.671c-0.18-0.187-0.396-0.333-0.649-0.439C117.638,3.034,117.354,2.98,117.039,2.98z"/>
	<path fill="#584C44" d="M126.664,6.919c-0.271,0.337-0.621,0.588-1.05,0.753s-0.86,0.248-1.292,0.248
		c-0.403,0-0.775-0.064-1.117-0.192c-0.341-0.129-0.636-0.313-0.885-0.556c-0.25-0.242-0.446-0.537-0.588-0.886
		c-0.143-0.348-0.215-0.738-0.215-1.171c0-0.411,0.07-0.789,0.209-1.134s0.332-0.64,0.578-0.885
		c0.246-0.246,0.537-0.438,0.875-0.578c0.337-0.139,0.708-0.209,1.111-0.209c0.396,0,0.77,0.061,1.122,0.182
		s0.655,0.308,0.908,0.562c0.253,0.253,0.443,0.575,0.572,0.968s0.167,0.856,0.116,1.392h-4.774
		c0.029,0.301,0.104,0.564,0.225,0.792c0.121,0.228,0.275,0.42,0.462,0.577c0.187,0.158,0.401,0.277,0.643,0.357
		c0.242,0.081,0.499,0.121,0.77,0.121c0.169,0,0.343-0.017,0.523-0.05c0.179-0.032,0.352-0.082,0.517-0.148
		c0.165-0.065,0.319-0.146,0.462-0.242c0.143-0.095,0.262-0.205,0.357-0.329L126.664,6.919z M126.334,4.817
		c-0.015-0.608-0.206-1.07-0.572-1.386s-0.854-0.473-1.463-0.473c-0.264,0-0.514,0.04-0.748,0.121
		c-0.235,0.08-0.445,0.199-0.632,0.357c-0.187,0.157-0.341,0.352-0.462,0.583c-0.121,0.23-0.196,0.497-0.225,0.797H126.334z"/>
	<path fill="#584C44" d="M128.182,3.036h-0.792V2.397h2.343v0.639h-0.792l1.001,2.299l0.693,1.771l0.682-1.781l1.012-2.288h-0.803
		V2.397h2.321v0.639h-0.759l-2.068,4.829h-0.781L128.182,3.036z"/>
	<path fill="#584C44" d="M139.445,6.919c-0.271,0.337-0.621,0.588-1.05,0.753s-0.86,0.248-1.292,0.248
		c-0.403,0-0.775-0.064-1.117-0.192c-0.341-0.129-0.636-0.313-0.885-0.556c-0.25-0.242-0.446-0.537-0.588-0.886
		c-0.143-0.348-0.215-0.738-0.215-1.171c0-0.411,0.07-0.789,0.209-1.134s0.332-0.64,0.578-0.885
		c0.246-0.246,0.537-0.438,0.875-0.578c0.337-0.139,0.708-0.209,1.111-0.209c0.396,0,0.77,0.061,1.122,0.182
		s0.655,0.308,0.908,0.562c0.253,0.253,0.443,0.575,0.572,0.968s0.167,0.856,0.116,1.392h-4.774
		c0.029,0.301,0.104,0.564,0.225,0.792c0.121,0.228,0.275,0.42,0.462,0.577c0.187,0.158,0.401,0.277,0.643,0.357
		c0.242,0.081,0.499,0.121,0.77,0.121c0.169,0,0.343-0.017,0.523-0.05c0.179-0.032,0.352-0.082,0.517-0.148
		c0.165-0.065,0.319-0.146,0.462-0.242c0.143-0.095,0.262-0.205,0.357-0.329L139.445,6.919z M139.116,4.817
		c-0.015-0.608-0.206-1.07-0.572-1.386s-0.854-0.473-1.463-0.473c-0.264,0-0.514,0.04-0.748,0.121
		c-0.235,0.08-0.445,0.199-0.632,0.357c-0.187,0.157-0.341,0.352-0.462,0.583c-0.121,0.23-0.196,0.497-0.225,0.797H139.116z"/>
	<path fill="#584C44" d="M140.512,0.143h1.65v7.051h0.946v0.649h-2.629V7.193h0.979V0.781h-0.946V0.143z"/>
	<path fill="#584C44" d="M143.889,5.137c0-0.425,0.072-0.813,0.215-1.166c0.143-0.352,0.341-0.65,0.594-0.896
		c0.253-0.245,0.548-0.437,0.886-0.572c0.337-0.136,0.704-0.203,1.1-0.203c0.403,0,0.776,0.067,1.117,0.203s0.636,0.328,0.885,0.578
		c0.25,0.249,0.446,0.548,0.589,0.896c0.143,0.348,0.214,0.735,0.214,1.16c0,0.426-0.071,0.811-0.214,1.155s-0.341,0.638-0.594,0.88
		s-0.55,0.429-0.891,0.561c-0.341,0.133-0.709,0.198-1.105,0.198s-0.763-0.065-1.1-0.198c-0.337-0.132-0.633-0.318-0.886-0.561
		s-0.451-0.535-0.594-0.88C143.961,5.947,143.889,5.562,143.889,5.137z M148.784,5.137c0-0.33-0.055-0.629-0.165-0.896
		c-0.11-0.268-0.258-0.497-0.445-0.688s-0.407-0.337-0.66-0.44c-0.253-0.103-0.526-0.153-0.819-0.153
		c-0.293,0-0.568,0.051-0.825,0.153c-0.257,0.104-0.479,0.25-0.666,0.44s-0.333,0.42-0.44,0.688s-0.159,0.566-0.159,0.896
		c0,0.323,0.053,0.614,0.159,0.875c0.106,0.26,0.253,0.481,0.44,0.665s0.407,0.326,0.66,0.429c0.253,0.104,0.526,0.154,0.819,0.154
		c0.293,0,0.568-0.051,0.825-0.154c0.257-0.103,0.479-0.245,0.666-0.429s0.335-0.405,0.445-0.665
		C148.729,5.751,148.784,5.46,148.784,5.137z"/>
	<path fill="#584C44" d="M150.247,3.047V2.409h1.628c0,0.036,0.002,0.109,0.006,0.22c0.003,0.11,0.005,0.228,0.005,0.352
		c0,0.125,0.001,0.244,0.005,0.357c0.003,0.114,0.005,0.189,0.005,0.226c0.11-0.197,0.244-0.374,0.402-0.527
		c0.157-0.154,0.33-0.282,0.517-0.386c0.187-0.103,0.387-0.18,0.6-0.23c0.213-0.052,0.429-0.077,0.649-0.077
		c0.389,0.008,0.75,0.075,1.083,0.203c0.334,0.129,0.622,0.312,0.864,0.551c0.242,0.238,0.433,0.527,0.572,0.868
		c0.139,0.342,0.209,0.731,0.209,1.172c0,0.426-0.07,0.812-0.209,1.16c-0.139,0.349-0.33,0.646-0.572,0.892
		c-0.242,0.245-0.532,0.435-0.869,0.566s-0.704,0.198-1.1,0.198c-0.205,0-0.414-0.024-0.627-0.072
		c-0.213-0.047-0.414-0.12-0.605-0.22c-0.191-0.099-0.367-0.222-0.528-0.368c-0.162-0.146-0.297-0.323-0.407-0.528v3.047h0.968
		v0.649h-2.508V9.812h0.847V3.047H150.247z M154.009,7.293c0.293,0,0.564-0.05,0.814-0.148c0.249-0.1,0.467-0.24,0.654-0.424
		s0.333-0.407,0.44-0.671s0.16-0.561,0.16-0.891c0-0.353-0.053-0.66-0.16-0.925c-0.106-0.264-0.253-0.483-0.44-0.659
		c-0.187-0.177-0.409-0.311-0.666-0.402c-0.257-0.091-0.532-0.137-0.825-0.137c-0.323,0-0.611,0.057-0.864,0.17
		c-0.253,0.114-0.466,0.266-0.638,0.457c-0.172,0.19-0.305,0.418-0.396,0.682c-0.092,0.264-0.138,0.543-0.138,0.836
		c0,0.294,0.047,0.566,0.143,0.819c0.095,0.253,0.231,0.476,0.407,0.666c0.176,0.19,0.391,0.343,0.644,0.456
		C153.398,7.236,153.687,7.293,154.009,7.293z"/>
	<path fill="#584C44" d="M162.952,6.919c-0.271,0.337-0.621,0.588-1.05,0.753s-0.86,0.248-1.292,0.248
		c-0.403,0-0.775-0.064-1.117-0.192c-0.341-0.129-0.636-0.313-0.885-0.556c-0.25-0.242-0.446-0.537-0.588-0.886
		c-0.143-0.348-0.215-0.738-0.215-1.171c0-0.411,0.07-0.789,0.209-1.134s0.332-0.64,0.578-0.885
		c0.246-0.246,0.537-0.438,0.875-0.578c0.337-0.139,0.708-0.209,1.111-0.209c0.396,0,0.77,0.061,1.122,0.182
		s0.655,0.308,0.908,0.562c0.253,0.253,0.443,0.575,0.572,0.968s0.167,0.856,0.116,1.392h-4.774
		c0.029,0.301,0.104,0.564,0.225,0.792c0.121,0.228,0.275,0.42,0.462,0.577c0.187,0.158,0.401,0.277,0.643,0.357
		c0.242,0.081,0.499,0.121,0.77,0.121c0.169,0,0.343-0.017,0.523-0.05c0.179-0.032,0.352-0.082,0.517-0.148
		c0.165-0.065,0.319-0.146,0.462-0.242c0.143-0.095,0.262-0.205,0.357-0.329L162.952,6.919z M162.622,4.817
		c-0.015-0.608-0.206-1.07-0.572-1.386s-0.854-0.473-1.463-0.473c-0.264,0-0.514,0.04-0.748,0.121
		c-0.235,0.08-0.445,0.199-0.632,0.357c-0.187,0.157-0.341,0.352-0.462,0.583c-0.121,0.23-0.196,0.497-0.225,0.797H162.622z"/>
	<path fill="#584C44" d="M165.085,3.047h-0.946V2.409h1.573l0.066,0.901c0.168-0.33,0.412-0.577,0.731-0.742
		c0.319-0.165,0.666-0.248,1.04-0.248c0.22,0,0.429,0.032,0.627,0.094c0.198,0.062,0.392,0.152,0.583,0.27l-0.319,0.605
		c-0.146-0.088-0.297-0.156-0.451-0.204c-0.154-0.047-0.315-0.071-0.484-0.071c-0.528,0.015-0.944,0.178-1.249,0.489
		c-0.305,0.312-0.457,0.725-0.457,1.238v2.475h0.924v0.627h-2.574V7.216h0.935V3.047z"/>
</g>
</svg>
