<!-- Generator: Adobe Illustrator 17.0.0, SVG Export Plug-In  -->
<svg version="1.1"
	 xmlns="http://www.w3.org/2000/svg" xmlns:xlink="http://www.w3.org/1999/xlink" xmlns:a="http://ns.adobe.com/AdobeSVGViewerExtensions/3.0/"
	 x="0px" y="0px" width="92px" height="74.768px" viewBox="0 0 92 74.768" enable-background="new 0 0 92 74.768"
	 xml:space="preserve">
<defs>
</defs>
<path d="M92,8.85c-3.387,1.502-7.023,2.516-10.842,2.973c3.898-2.336,6.891-6.035,8.301-10.442
	c-3.648,2.162-7.688,3.733-11.986,4.58C74.029,2.291,69.123,0,63.695,0C53.271,0,44.82,8.45,44.82,18.874
	c0,1.479,0.166,2.92,0.488,4.301C29.623,22.389,15.711,14.874,6.404,3.454c-1.625,2.788-2.557,6.03-2.557,9.489
	c0,6.548,3.332,12.324,8.396,15.71c-3.092-0.098-6.004-0.945-8.549-2.359c-0.002,0.078-0.002,0.156-0.002,0.236
	c0,9.146,6.508,16.774,15.141,18.508c-1.582,0.432-3.25,0.663-4.973,0.663c-1.215,0-2.397-0.118-3.551-0.339
	c2.402,7.498,9.375,12.956,17.633,13.107c-6.461,5.063-14.598,8.081-23.441,8.081c-1.523,0-3.025-0.09-4.502-0.267
	c8.352,5.357,18.271,8.483,28.934,8.483c34.717,0,53.703-28.763,53.703-53.706c0-0.816-0.018-1.631-0.055-2.442
	C86.27,15.96,89.469,12.636,92,8.85z"/>
</svg>
